<svg width="34" height="32" viewBox="0 0 34 32" fill="none" xmlns="http://www.w3.org/2000/svg">
<path d="M16.662 0C7.47535 0 0 7.17775 0 15.9987C0 24.8197 7.47535 31.9973 16.662 31.9973C25.8487 31.9973 33.3241 24.8195 33.3241 15.9987C33.3241 7.17775 25.8486 0 16.662 0ZM24.0099 23.5198L20.9305 21.2937C20.6757 21.1085 20.1341 21.0865 19.8615 21.253L15.8975 23.6541C14.9348 24.2386 13.4872 24.2318 12.5296 23.6337L8.71588 21.2599C8.42735 21.0798 7.84864 21.0831 7.56548 21.2633L5.48955 22.5769C5.13385 22.023 4.81349 21.4471 4.54976 20.842L6.44692 19.6388C7.40614 19.0321 8.85561 19.0271 9.81834 19.6253L13.6321 22.0026C13.9241 22.1828 14.5188 22.186 14.8143 22.0093L18.7785 19.6048C19.766 19.0067 21.2155 19.0644 22.1499 19.7392L25.2293 21.9668C25.4825 22.1504 26.0116 22.1691 26.2805 22.0008L28.9705 20.3252C28.4838 21.5997 27.7953 22.7773 26.9299 23.8206C25.9868 24.191 24.817 24.1043 24.0099 23.5198ZM3.53947 15.9987C6.53205 14.9689 10.2768 13.798 13.1844 12.9179C13.165 12.7123 13.1668 12.5085 13.2127 12.2977L15.0072 4.19218C15.0673 3.92029 15.1948 3.68235 15.3523 3.46306C15.7841 3.42237 16.2195 3.40016 16.6619 3.40016C19.7553 3.40016 22.5976 4.44025 24.8434 6.16503L18.8918 6.57801L17.791 11.5569C17.8298 11.5908 18.2934 11.9885 18.5501 12.1856C18.7502 12.3418 18.9519 12.4999 19.1412 12.6647C18.0194 13.8133 17.3272 15.3496 17.3272 17.0454C17.3272 17.5858 17.4016 18.1091 17.5343 18.6106L14.563 20.4116C14.5258 20.4287 14.1471 20.4287 14.1029 20.4066L10.2945 18.0343C9.14598 17.3173 7.32489 17.324 6.18338 18.0514L4.04193 19.4058C3.72176 18.3199 3.53947 17.1815 3.53947 15.9987ZM29.5085 18.2623L26.0575 20.4118C26.0575 20.4118 26.0133 20.4203 25.9389 20.4203C25.8523 20.4203 25.7849 20.4018 25.7673 20.3933L22.7003 18.174C21.5729 17.3583 19.759 17.2853 18.5627 18.0108L18.4441 18.0807C18.3769 17.7441 18.3379 17.3992 18.3379 17.0441C18.3379 14.0449 20.872 11.6132 23.9956 11.6132C27.1209 11.6132 29.6553 14.0467 29.6553 17.0441C29.6555 17.4651 29.6005 17.8697 29.5085 18.2623Z" fill="#1B1B1B"/>
</svg>
