<svg width="34" height="32" viewBox="0 0 34 32" fill="none" xmlns="http://www.w3.org/2000/svg">
<path d="M16.9863 0C7.79957 0 0.324219 7.17775 0.324219 15.9987C0.324219 24.8197 7.79957 31.9973 16.9863 31.9973C26.173 31.9973 33.6483 24.8195 33.6483 15.9987C33.6485 7.17775 26.173 0 16.9863 0ZM20.3027 10.5033L18.4285 7.68243L14.56 11.3596L18.1455 13.1727C19.6198 13.8524 19.4001 15.0928 19.4001 15.0928V22.8943C19.4001 23.7762 18.6552 24.4966 17.7349 24.4966C16.8145 24.4966 16.0713 23.7746 16.0713 22.8943V16.6511L9.85422 13.3341C9.11264 12.9397 8.60833 12.1735 8.60833 11.3068C8.60833 10.7087 8.83837 10.1649 9.23127 9.7555L15.3351 3.8828C15.5138 3.68732 15.7085 3.55493 15.9032 3.45293C16.2608 3.42415 16.62 3.40034 16.9844 3.40034C17.3862 3.40034 17.7824 3.42415 18.1755 3.45809C18.7774 3.77422 19.0959 4.26521 19.0959 4.26521L22.2637 9.03847L27.0809 9.02834C28.8098 9.02834 28.8098 11.1933 27.0809 11.1933H21.5044C21.085 11.2016 20.6321 11.0012 20.3027 10.5033ZM19.3048 3.60754C20.2674 3.77404 21.1983 4.02905 22.0763 4.38569C21.8532 4.43829 21.6214 4.46904 21.3808 4.46904C20.5613 4.46921 19.8286 4.13602 19.3048 3.60754ZM3.86387 15.9987C3.86387 15.5161 3.89922 15.042 3.954 14.573C4.73796 14.3198 5.57151 14.1702 6.44412 14.1702C10.7942 14.1702 14.3176 17.5485 14.3176 21.7253C14.3176 24.0245 13.2434 26.0721 11.5569 27.4552C7.02635 25.4686 3.86387 21.0863 3.86387 15.9987ZM23.3964 26.9829C22.0194 25.625 21.1664 23.7746 21.1664 21.7253C21.1664 17.5485 24.6935 14.1702 29.0382 14.1702C29.3549 14.1702 29.6593 14.218 29.9656 14.2535C30.0487 14.8245 30.1072 15.4039 30.1072 15.9987C30.109 20.7108 27.3976 24.8215 23.3964 26.9829Z" fill="#1B1B1B"/>
</svg>
