<svg width="34" height="32" viewBox="0 0 34 32" fill="none" xmlns="http://www.w3.org/2000/svg">
<path d="M17.3105 0C8.12379 0 0.648438 7.17775 0.648438 15.9987C0.648438 24.8197 8.12398 31.9973 17.3105 31.9973C26.497 31.9973 33.9725 24.8195 33.9725 15.9987C33.9725 7.17775 26.4988 0 17.3105 0ZM27.4599 13.54C26.2673 14.6837 25.3061 13.7133 25.3061 13.7133L22.8903 11.3836L19.1173 15.5742L22.577 18.8928C22.577 18.8928 23.3027 19.5419 22.8868 20.8335L21.2055 28.0334C20.1012 28.3629 18.9315 28.5431 17.7245 28.5806C17.7332 28.526 17.7315 28.4665 17.7474 28.4139L19.3385 21.6082L15.4131 17.9446L12.0328 21.5624C12.0328 21.5624 11.4843 22.2098 10.0348 22.1604L5.87963 22.1655C5.30795 21.1935 4.87433 20.1383 4.58766 19.0287L9.08652 19.0404L17.8041 9.33932L15.5247 9.32582L11.5676 13.7167C11.334 13.9937 10.9766 14.1636 10.58 14.1636C9.87048 14.1636 9.2988 13.6147 9.2988 12.9383C9.2988 12.5662 9.46499 12.24 9.72872 12.0139L13.9938 7.29681C14.2328 7.02653 14.5866 6.85327 14.9832 6.85327L21.1614 6.85149C21.6126 6.85149 22.0179 7.02653 22.317 7.30357L26.2583 11.0877L28.2987 9.13354C28.803 9.87616 29.2223 10.6732 29.5569 11.5124L27.4599 13.54ZM26.6582 7.16922C26.244 7.37482 25.7837 7.50739 25.2848 7.50739C23.5858 7.50739 22.2073 6.18369 22.2073 4.55576C22.2073 4.47774 22.2424 4.40968 22.248 4.33149C23.9151 4.98562 25.4141 5.95605 26.6582 7.16922Z" fill="#1B1B1B"/>
</svg>
