<?xml version="1.0" encoding="UTF-8"?> <svg xmlns="http://www.w3.org/2000/svg" width="175" height="85" viewBox="0 0 175 85" fill="none"><g opacity="0.5"><circle cx="5" cy="5" r="5" fill="white"></circle><circle cx="20" cy="5" r="5" fill="white"></circle><circle cx="35" cy="5" r="5" fill="white"></circle><circle cx="50" cy="5" r="5" fill="white"></circle><circle cx="65" cy="5" r="5" fill="white"></circle><circle cx="80" cy="5" r="5" fill="white"></circle><circle cx="5" cy="20" r="5" fill="white"></circle><circle cx="20" cy="20" r="5" fill="white"></circle><circle cx="35" cy="20" r="5" fill="white"></circle><circle cx="50" cy="20" r="5" fill="white"></circle><circle cx="65" cy="20" r="5" fill="white"></circle><circle cx="80" cy="20" r="5" fill="white"></circle><circle cx="5" cy="35" r="5" fill="white"></circle><circle cx="20" cy="35" r="5" fill="white"></circle><circle cx="35" cy="35" r="5" fill="white"></circle><circle cx="50" cy="35" r="5" fill="white"></circle><circle cx="65" cy="35" r="5" fill="white"></circle><circle cx="80" cy="35" r="5" fill="white"></circle><circle cx="5" cy="50" r="5" fill="white"></circle><circle cx="20" cy="50" r="5" fill="white"></circle><circle cx="35" cy="50" r="5" fill="white"></circle><circle cx="50" cy="50" r="5" fill="white"></circle><circle cx="65" cy="50" r="5" fill="white"></circle><circle cx="80" cy="50" r="5" fill="white"></circle><circle cx="5" cy="65" r="5" fill="white"></circle><circle cx="20" cy="65" r="5" fill="white"></circle><circle cx="35" cy="65" r="5" fill="white"></circle><circle cx="50" cy="65" r="5" fill="white"></circle><circle cx="65" cy="65" r="5" fill="white"></circle><circle cx="80" cy="65" r="5" fill="white"></circle><circle cx="5" cy="80" r="5" fill="white"></circle><circle cx="20" cy="80" r="5" fill="white"></circle><circle cx="35" cy="80" r="5" fill="white"></circle><circle cx="50" cy="80" r="5" fill="white"></circle><circle cx="65" cy="80" r="5" fill="white"></circle><circle cx="80" cy="80" r="5" fill="white"></circle><circle cx="95" cy="5" r="5" fill="#E3F401"></circle><circle cx="110" cy="5" r="5" fill="#E3F401"></circle><circle cx="125" cy="5" r="5" fill="#E3F401"></circle><circle cx="140" cy="5" r="5" fill="#E3F401"></circle><circle cx="155" cy="5" r="5" fill="#E3F401"></circle><circle cx="170" cy="5" r="5" fill="#E3F401"></circle><circle cx="95" cy="20" r="5" fill="#E3F401"></circle><circle cx="110" cy="20" r="5" fill="#E3F401"></circle><circle cx="125" cy="20" r="5" fill="#E3F401"></circle><circle cx="140" cy="20" r="5" fill="#E3F401"></circle><circle cx="155" cy="20" r="5" fill="#E3F401"></circle><circle cx="170" cy="20" r="5" fill="#E3F401"></circle><circle cx="95" cy="35" r="5" fill="#E3F401"></circle><circle cx="110" cy="35" r="5" fill="#E3F401"></circle><circle cx="125" cy="35" r="5" fill="#E3F401"></circle><circle cx="140" cy="35" r="5" fill="#E3F401"></circle><circle cx="155" cy="35" r="5" fill="#E3F401"></circle><circle cx="170" cy="35" r="5" fill="#E3F401"></circle><circle cx="95" cy="50" r="5" fill="#E3F401"></circle><circle cx="110" cy="50" r="5" fill="#E3F401"></circle><circle cx="125" cy="50" r="5" fill="#E3F401"></circle><circle cx="140" cy="50" r="5" fill="#E3F401"></circle><circle cx="155" cy="50" r="5" fill="#E3F401"></circle><circle cx="170" cy="50" r="5" fill="#E3F401"></circle><circle cx="95" cy="65" r="5" fill="#E3F401"></circle><circle cx="110" cy="65" r="5" fill="#E3F401"></circle><circle cx="125" cy="65" r="5" fill="#E3F401"></circle><circle cx="140" cy="65" r="5" fill="#E3F401"></circle><circle cx="155" cy="65" r="5" fill="#E3F401"></circle><circle cx="170" cy="65" r="5" fill="#E3F401"></circle><circle cx="95" cy="80" r="5" fill="#E3F401"></circle><circle cx="110" cy="80" r="5" fill="#E3F401"></circle><circle cx="125" cy="80" r="5" fill="#E3F401"></circle><circle cx="140" cy="80" r="5" fill="#E3F401"></circle><circle cx="155" cy="80" r="5" fill="#E3F401"></circle><circle cx="170" cy="80" r="5" fill="#E3F401"></circle></g></svg> 